<svg width="466" height="27" viewBox="0 0 466 27" fill="none" xmlns="http://www.w3.org/2000/svg">
<g clip-path="url(#clip0_13_256)">
<path d="M354.572 20.7767H331.684V25.9684H354.572V20.7767Z" fill="white"/>
<path d="M256.133 25.9684H271.599V20.7767H251.718L256.133 25.9684Z" fill="white"/>
<path d="M352.956 11.1387H331.684V16.3304H352.956V11.1387Z" fill="white"/>
<path d="M272.902 1.50598V25.9684H278.62L282.728 21.7097V1.50598H272.902Z" fill="white"/>
<path d="M435.288 5.8011V21.6941L439.343 25.8954L439.416 25.9684H449.992V20.7767H443.664L441.459 18.4884V8.99117L443.503 6.69766H449.992V1.50598H439.109L435.288 5.8011Z" fill="white"/>
<path d="M397.737 5.8011V21.6941L401.792 25.8954L401.86 25.9684H412.436V20.7767H406.108L403.903 18.4884V8.99117L405.946 6.69766H412.436V1.50598H401.558L397.737 5.8011Z" fill="white"/>
<path d="M424.633 1.50598H413.744V6.69766H420.234L422.256 8.97032V18.4936L420.052 20.7767H413.744V25.9684H424.331L428.371 21.7827L428.444 21.7097V5.78025L424.706 1.58417L424.633 1.50598Z" fill="white"/>
<path d="M462.19 1.50598H451.296V6.69766H457.79L459.808 8.97032V18.4936L457.608 20.7767H451.296V25.9684H461.887L465.927 21.7827L466 21.7097V5.78025L462.257 1.58417L462.19 1.50598Z" fill="white"/>
<path d="M361.166 5.72291L361.098 5.8011V21.6941L365.221 25.9684H367.259V1.50598H364.919L361.166 5.72291Z" fill="white"/>
<path d="M391.45 1.50598H368.562V6.69765H391.45V1.50598Z" fill="white"/>
<path d="M354.572 1.50598H331.684V6.69765H354.572V1.50598Z" fill="white"/>
<path d="M391.45 20.7767H368.562V25.9684H391.45V20.7767Z" fill="white"/>
<path d="M329.338 1.50598H328.045H324.219V5.8011V8.31354V19.1556V21.6941V25.9684H328.342H329.338H330.38V1.50598H329.338Z" fill="white"/>
<path d="M298.568 1.50598H292.397L287.466 25.9684H293.971L297.854 6.69766H306.392L305.345 1.50598H298.563H298.568ZM313.247 1.50598H306.752L307.8 6.69766L311.683 25.9684H318.173L313.242 1.50598H313.247Z" fill="white"/>
<path d="M233.756 0.687611V26.3124V21.3709" stroke="#E50013" stroke-width="7.29754" stroke-miterlimit="10"/>
<path d="M30.7643 0.854408H4.33682L0 5.19123V10.8677L5.56177 16.4294V7.87047L8.59546 4.86284H26.464L35.1012 13.4948V5.18602L30.7643 0.854408ZM4.33682 25.9267H30.7643L35.1012 21.5898V15.9134L29.5394 10.3516V18.9106L26.5057 21.9182H8.63716L0 13.2811V21.5898L4.33682 25.9267Z" fill="white"/>
<path d="M121.025 0.854408H94.597L90.2602 5.19123V10.8677L95.822 16.4294V7.87047L98.8556 4.86284H116.724L125.361 13.4948V5.18602L121.025 0.854408ZM94.597 25.9267H121.025L125.361 21.5898V15.9134L119.8 10.3516V18.9106L116.766 21.9182H98.8973L90.2602 13.2811V21.5898L94.597 25.9267Z" fill="white"/>
<path d="M166.128 0.854408H159.696L164.513 5.87407V18.9419L161.422 21.913H140.988V4.86805H161.036L157.189 0.854408H135.39V25.9267H165.779V25.911L165.795 25.9267L170.142 21.7462V5.03486L166.128 0.854408Z" fill="white"/>
<path d="M213.516 25.9267H207.917L199.468 0.854408H205.066L213.516 25.9267Z" fill="white"/>
<path d="M196.961 0.854408H188.621L180.171 25.9267H185.769L191.91 7.70888H199.27L196.961 0.854408Z" fill="white"/>
<path d="M63.4208 25.9267L59.0319 0.854408H49.1541L45.1301 5.05049V25.9267H50.7283V7.70888H54.6951L57.8174 25.9267H63.4208Z" fill="white"/>
<path d="M76.2072 0.854408H66.246L63.8952 14.3027L65.9281 25.9267H67.4606L70.6454 7.70888H74.633V25.9267H80.2313V5.05049L76.2072 0.854408Z" fill="white"/>
</g>
<defs>
<clipPath id="clip0_13_256">
<rect width="466" height="25.6248" fill="white" transform="translate(0 0.687607)"/>
</clipPath>
</defs>
</svg>
